<mxfile host="app.diagrams.net" modified="2023-08-14T22:06:13.021Z" agent="Mozilla/5.0 (Windows NT 10.0; Win64; x64) AppleWebKit/537.36 (KHTML, like Gecko) Chrome/115.0.0.0 Safari/537.36" etag="oyTpA09MCkSPLDwQMajj" version="21.6.8" type="device">
  <diagram name="Drawer navigation app" id="hS1VGhAXH8S56tidpwiD">
    <mxGraphModel dx="934" dy="536" grid="1" gridSize="10" guides="1" tooltips="1" connect="1" arrows="1" fold="1" page="1" pageScale="1" pageWidth="827" pageHeight="1169" background="#ffffff" math="0" shadow="1">
      <root>
        <mxCell id="0" />
        <mxCell id="1" parent="0" />
        <mxCell id="WZFWUnbdg4_tSGTDkGMQ-15" value="" style="shape=partialRectangle;whiteSpace=wrap;html=1;left=0;right=0;fillColor=none;" parent="1" vertex="1">
          <mxGeometry x="37.5" y="190" width="160" height="50" as="geometry" />
        </mxCell>
        <mxCell id="WZFWUnbdg4_tSGTDkGMQ-7" value="&lt;div style=&quot;color: rgb(248, 248, 242); background-color: rgb(40, 42, 54); font-family: &amp;quot;Fira Code Retina&amp;quot;, &amp;quot;Courier New&amp;quot;, monospace, Consolas, &amp;quot;Courier New&amp;quot;, monospace; line-height: 16px;&quot;&gt;NavigationContainer&lt;/div&gt;" style="text;html=1;strokeColor=none;fillColor=none;align=center;verticalAlign=middle;whiteSpace=wrap;rounded=0;" parent="1" vertex="1">
          <mxGeometry x="77.5" y="190" width="82.5" height="30" as="geometry" />
        </mxCell>
        <mxCell id="l3EFAe5m562RGDAlPu4d-17" value="" style="shape=cube;whiteSpace=wrap;html=1;boundedLbl=1;backgroundOutline=1;darkOpacity=0.05;darkOpacity2=0.1;" vertex="1" parent="1">
          <mxGeometry x="42.5" y="90" width="120" height="80" as="geometry" />
        </mxCell>
        <mxCell id="l3EFAe5m562RGDAlPu4d-4" value="" style="shape=partialRectangle;whiteSpace=wrap;html=1;left=0;right=0;fillColor=none;" vertex="1" parent="1">
          <mxGeometry x="428.63" y="800" width="150" height="50" as="geometry" />
        </mxCell>
        <mxCell id="WZFWUnbdg4_tSGTDkGMQ-83" value="" style="shape=partialRectangle;whiteSpace=wrap;html=1;left=0;right=0;fillColor=none;" parent="1" vertex="1">
          <mxGeometry x="167.5" y="610" width="162.5" height="50" as="geometry" />
        </mxCell>
        <mxCell id="WZFWUnbdg4_tSGTDkGMQ-97" value="" style="endArrow=classic;html=1;rounded=0;exitX=0.5;exitY=1;exitDx=0;exitDy=0;" parent="1" source="WZFWUnbdg4_tSGTDkGMQ-94" edge="1">
          <mxGeometry width="50" height="50" relative="1" as="geometry">
            <mxPoint x="366.5" y="570" as="sourcePoint" />
            <mxPoint x="367.5" y="610" as="targetPoint" />
          </mxGeometry>
        </mxCell>
        <mxCell id="WZFWUnbdg4_tSGTDkGMQ-21" value="&lt;font style=&quot;font-size: 9px;&quot;&gt;Create Navigation&lt;/font&gt;" style="text;html=1;strokeColor=none;fillColor=none;align=center;verticalAlign=middle;whiteSpace=wrap;rounded=0;" parent="1" vertex="1">
          <mxGeometry x="207.5" y="215" width="140" height="30" as="geometry" />
        </mxCell>
        <mxCell id="WZFWUnbdg4_tSGTDkGMQ-81" value="" style="rounded=1;whiteSpace=wrap;html=1;" parent="1" vertex="1">
          <mxGeometry x="308" y="530" width="120" height="40" as="geometry" />
        </mxCell>
        <mxCell id="WZFWUnbdg4_tSGTDkGMQ-66" value="" style="edgeStyle=elbowEdgeStyle;elbow=horizontal;endArrow=classic;html=1;curved=0;rounded=0;endSize=8;startSize=8;fontColor=#32FF24;labelBorderColor=none;labelBackgroundColor=#FFFFFF;" parent="1" edge="1">
          <mxGeometry width="50" height="50" relative="1" as="geometry">
            <mxPoint x="169" y="160" as="sourcePoint" />
            <mxPoint x="626.25" y="285.25" as="targetPoint" />
          </mxGeometry>
        </mxCell>
        <mxCell id="WZFWUnbdg4_tSGTDkGMQ-69" value="" style="rounded=1;whiteSpace=wrap;html=1;labelBackgroundColor=#FF0894;" parent="1" vertex="1">
          <mxGeometry x="351.5" y="190.5" width="96" height="49.5" as="geometry" />
        </mxCell>
        <mxCell id="WZFWUnbdg4_tSGTDkGMQ-64" value="" style="shape=partialRectangle;whiteSpace=wrap;html=1;left=0;right=0;fillColor=none;" parent="1" vertex="1">
          <mxGeometry x="547.5" y="310" width="120" height="35" as="geometry" />
        </mxCell>
        <mxCell id="WZFWUnbdg4_tSGTDkGMQ-53" value="" style="shape=partialRectangle;whiteSpace=wrap;html=1;left=0;right=0;fillColor=none;" parent="1" vertex="1">
          <mxGeometry x="200" y="300" width="167.5" height="50" as="geometry" />
        </mxCell>
        <mxCell id="WZFWUnbdg4_tSGTDkGMQ-14" value="&lt;font style=&quot;font-size: 9px;&quot;&gt;Provide navigate for App&lt;/font&gt;" style="text;html=1;strokeColor=none;fillColor=none;align=center;verticalAlign=middle;whiteSpace=wrap;rounded=0;" parent="1" vertex="1">
          <mxGeometry x="62.5" y="240" width="110" height="25" as="geometry" />
        </mxCell>
        <mxCell id="WZFWUnbdg4_tSGTDkGMQ-16" value="&lt;b&gt;&lt;font style=&quot;font-size: 22px;&quot;&gt;App&lt;/font&gt;&lt;/b&gt;" style="text;html=1;strokeColor=none;fillColor=none;align=center;verticalAlign=middle;whiteSpace=wrap;rounded=0;" parent="1" vertex="1">
          <mxGeometry x="80" y="120" width="60" height="30" as="geometry" />
        </mxCell>
        <mxCell id="WZFWUnbdg4_tSGTDkGMQ-18" value="" style="shape=curlyBracket;whiteSpace=wrap;html=1;rounded=1;flipH=1;labelPosition=right;verticalLabelPosition=middle;align=left;verticalAlign=middle;" parent="1" vertex="1">
          <mxGeometry x="197.5" y="190" width="20" height="50" as="geometry" />
        </mxCell>
        <mxCell id="WZFWUnbdg4_tSGTDkGMQ-19" value="&lt;div style=&quot;color: rgb(248, 248, 242); background-color: rgb(40, 42, 54); font-family: &amp;quot;Fira Code Retina&amp;quot;, &amp;quot;Courier New&amp;quot;, monospace, Consolas, &amp;quot;Courier New&amp;quot;, monospace; line-height: 16px;&quot;&gt;DrawerNavigator&lt;/div&gt;" style="text;html=1;strokeColor=none;fillColor=none;align=center;verticalAlign=middle;whiteSpace=wrap;rounded=0;" parent="1" vertex="1">
          <mxGeometry x="207.5" y="200" width="140" height="30" as="geometry" />
        </mxCell>
        <mxCell id="WZFWUnbdg4_tSGTDkGMQ-22" value="&lt;font style=&quot;font-size: 9px;&quot;&gt;Import navigation navtive&lt;/font&gt;" style="text;html=1;strokeColor=none;fillColor=none;align=center;verticalAlign=middle;whiteSpace=wrap;rounded=0;" parent="1" vertex="1">
          <mxGeometry x="52.5" y="208" width="110" height="25" as="geometry" />
        </mxCell>
        <mxCell id="WZFWUnbdg4_tSGTDkGMQ-28" value="&lt;div style=&quot;color: rgb(248, 248, 242); background-color: rgb(40, 42, 54); font-family: &amp;quot;Fira Code Retina&amp;quot;, &amp;quot;Courier New&amp;quot;, monospace, Consolas, &amp;quot;Courier New&amp;quot;, monospace; line-height: 16px;&quot;&gt;Drawer -&amp;gt; Navigate&lt;/div&gt;" style="text;html=1;strokeColor=none;fillColor=none;align=center;verticalAlign=middle;whiteSpace=wrap;rounded=0;" parent="1" vertex="1">
          <mxGeometry x="197.5" y="300" width="160" height="30" as="geometry" />
        </mxCell>
        <mxCell id="WZFWUnbdg4_tSGTDkGMQ-31" value="&lt;div style=&quot;color: rgb(248, 248, 242); background-color: rgb(40, 42, 54); font-family: &amp;quot;Fira Code Retina&amp;quot;, &amp;quot;Courier New&amp;quot;, monospace, Consolas, &amp;quot;Courier New&amp;quot;, monospace; line-height: 16px;&quot;&gt;Drawer -&amp;gt; Screen&lt;/div&gt;" style="text;html=1;strokeColor=none;fillColor=none;align=center;verticalAlign=middle;whiteSpace=wrap;rounded=0;" parent="1" vertex="1">
          <mxGeometry x="387.5" y="310" width="140" height="30" as="geometry" />
        </mxCell>
        <mxCell id="WZFWUnbdg4_tSGTDkGMQ-42" value="&lt;span style=&quot;color: rgb(0, 0, 0); font-family: Helvetica; font-size: 11px; font-style: normal; font-variant-ligatures: normal; font-variant-caps: normal; font-weight: 400; letter-spacing: normal; orphans: 2; text-align: center; text-indent: 0px; text-transform: none; widows: 2; word-spacing: 0px; -webkit-text-stroke-width: 0px; background-color: rgb(255, 255, 255); text-decoration-thickness: initial; text-decoration-style: initial; text-decoration-color: initial; float: none; display: inline !important;&quot;&gt;Provider drawer navigate screen&lt;/span&gt;" style="text;whiteSpace=wrap;html=1;" parent="1" vertex="1">
          <mxGeometry x="197.5" y="320" width="190" height="40" as="geometry" />
        </mxCell>
        <mxCell id="WZFWUnbdg4_tSGTDkGMQ-55" value="" style="endArrow=classic;html=1;rounded=0;exitX=0.5;exitY=1;exitDx=0;exitDy=0;entryX=0.5;entryY=0;entryDx=0;entryDy=0;" parent="1" source="WZFWUnbdg4_tSGTDkGMQ-21" target="WZFWUnbdg4_tSGTDkGMQ-28" edge="1">
          <mxGeometry width="50" height="50" relative="1" as="geometry">
            <mxPoint x="317.5" y="340" as="sourcePoint" />
            <mxPoint x="367.5" y="290" as="targetPoint" />
          </mxGeometry>
        </mxCell>
        <mxCell id="WZFWUnbdg4_tSGTDkGMQ-57" value="&lt;span style=&quot;color: rgb(0, 0, 0); font-family: Helvetica; font-size: 11px; font-style: normal; font-variant-ligatures: normal; font-variant-caps: normal; font-weight: 400; letter-spacing: normal; orphans: 2; text-align: center; text-indent: 0px; text-transform: none; widows: 2; word-spacing: 0px; -webkit-text-stroke-width: 0px; background-color: rgb(255, 255, 255); text-decoration-thickness: initial; text-decoration-style: initial; text-decoration-color: initial; float: none; display: inline !important;&quot;&gt;Drawer defined by createDrawerNavigator&lt;/span&gt;" style="text;whiteSpace=wrap;html=1;" parent="1" vertex="1">
          <mxGeometry x="10" y="380" width="215" height="30" as="geometry" />
        </mxCell>
        <mxCell id="WZFWUnbdg4_tSGTDkGMQ-59" value="" style="edgeStyle=segmentEdgeStyle;endArrow=classic;html=1;curved=0;rounded=0;endSize=8;startSize=8;exitX=0;exitY=0.25;exitDx=0;exitDy=0;entryX=0.5;entryY=0;entryDx=0;entryDy=0;" parent="1" source="WZFWUnbdg4_tSGTDkGMQ-53" target="WZFWUnbdg4_tSGTDkGMQ-57" edge="1">
          <mxGeometry width="50" height="50" relative="1" as="geometry">
            <mxPoint x="67.5" y="365" as="sourcePoint" />
            <mxPoint x="117.5" y="315" as="targetPoint" />
            <Array as="points">
              <mxPoint x="117.5" y="312" />
            </Array>
          </mxGeometry>
        </mxCell>
        <mxCell id="WZFWUnbdg4_tSGTDkGMQ-61" value="" style="shape=curlyBracket;whiteSpace=wrap;html=1;rounded=1;flipH=1;labelPosition=right;verticalLabelPosition=middle;align=left;verticalAlign=middle;" parent="1" vertex="1">
          <mxGeometry x="367.5" y="300" width="20" height="50" as="geometry" />
        </mxCell>
        <mxCell id="WZFWUnbdg4_tSGTDkGMQ-62" value="" style="shape=curlyBracket;whiteSpace=wrap;html=1;rounded=1;labelPosition=left;verticalLabelPosition=middle;align=right;verticalAlign=middle;size=0.5;" parent="1" vertex="1">
          <mxGeometry x="527.5" y="310" width="20" height="35" as="geometry" />
        </mxCell>
        <mxCell id="WZFWUnbdg4_tSGTDkGMQ-63" value="Drawer - Screen component" style="text;html=1;strokeColor=none;fillColor=none;align=center;verticalAlign=middle;whiteSpace=wrap;rounded=0;" parent="1" vertex="1">
          <mxGeometry x="537.5" y="312.5" width="120" height="30" as="geometry" />
        </mxCell>
        <mxCell id="WZFWUnbdg4_tSGTDkGMQ-68" value="&lt;b&gt;Create Drawer&lt;/b&gt;" style="text;html=1;strokeColor=none;fillColor=none;align=center;verticalAlign=middle;whiteSpace=wrap;rounded=0;" parent="1" vertex="1">
          <mxGeometry x="347.5" y="200" width="100" height="30" as="geometry" />
        </mxCell>
        <mxCell id="WZFWUnbdg4_tSGTDkGMQ-74" value="" style="endArrow=none;dashed=1;html=1;rounded=0;" parent="1" edge="1">
          <mxGeometry width="50" height="50" relative="1" as="geometry">
            <mxPoint x="37.5" y="420" as="sourcePoint" />
            <mxPoint x="437.5" y="420" as="targetPoint" />
          </mxGeometry>
        </mxCell>
        <mxCell id="WZFWUnbdg4_tSGTDkGMQ-78" value="&lt;div style=&quot;color: rgb(248, 248, 242); background-color: rgb(40, 42, 54); font-family: &amp;quot;Fira Code Retina&amp;quot;, &amp;quot;Courier New&amp;quot;, monospace, Consolas, &amp;quot;Courier New&amp;quot;, monospace; line-height: 16px;&quot;&gt;Bottom Tab Navigate&lt;/div&gt;" style="text;html=1;strokeColor=none;fillColor=none;align=center;verticalAlign=middle;whiteSpace=wrap;rounded=0;" parent="1" vertex="1">
          <mxGeometry x="160" y="610" width="170" height="30" as="geometry" />
        </mxCell>
        <mxCell id="WZFWUnbdg4_tSGTDkGMQ-79" value="Create multi tab (bottom, top...)" style="text;html=1;strokeColor=none;fillColor=none;align=center;verticalAlign=middle;whiteSpace=wrap;rounded=0;" parent="1" vertex="1">
          <mxGeometry x="303" y="532.5" width="130" height="30" as="geometry" />
        </mxCell>
        <mxCell id="WZFWUnbdg4_tSGTDkGMQ-85" value="&lt;span style=&quot;color: rgb(0, 0, 0); font-family: Helvetica; font-size: 11px; font-style: normal; font-variant-ligatures: normal; font-variant-caps: normal; font-weight: 400; letter-spacing: normal; orphans: 2; text-align: center; text-indent: 0px; text-transform: none; widows: 2; word-spacing: 0px; -webkit-text-stroke-width: 0px; background-color: rgb(255, 255, 255); text-decoration-thickness: initial; text-decoration-style: initial; text-decoration-color: initial; float: none; display: inline !important;&quot;&gt;Tab Bottom defined by createBottomTabNavigator&lt;/span&gt;" style="text;whiteSpace=wrap;html=1;" parent="1" vertex="1">
          <mxGeometry x="30" y="688" width="130" height="42" as="geometry" />
        </mxCell>
        <mxCell id="WZFWUnbdg4_tSGTDkGMQ-86" value="" style="edgeStyle=segmentEdgeStyle;endArrow=classic;html=1;curved=0;rounded=0;endSize=8;startSize=8;" parent="1" edge="1">
          <mxGeometry width="50" height="50" relative="1" as="geometry">
            <mxPoint x="162.5" y="620" as="sourcePoint" />
            <mxPoint x="92.5" y="688" as="targetPoint" />
            <Array as="points">
              <mxPoint x="92" y="620" />
            </Array>
          </mxGeometry>
        </mxCell>
        <mxCell id="WZFWUnbdg4_tSGTDkGMQ-107" value="" style="edgeStyle=orthogonalEdgeStyle;rounded=0;orthogonalLoop=1;jettySize=auto;html=1;exitX=0.5;exitY=0;exitDx=0;exitDy=0;" parent="1" source="WZFWUnbdg4_tSGTDkGMQ-78" target="WZFWUnbdg4_tSGTDkGMQ-99" edge="1">
          <mxGeometry relative="1" as="geometry" />
        </mxCell>
        <mxCell id="WZFWUnbdg4_tSGTDkGMQ-87" value="&lt;span style=&quot;color: rgb(0, 0, 0); font-family: Helvetica; font-style: normal; font-variant-ligatures: normal; font-variant-caps: normal; font-weight: 400; letter-spacing: normal; orphans: 2; text-align: center; text-indent: 0px; text-transform: none; widows: 2; word-spacing: 0px; -webkit-text-stroke-width: 0px; background-color: rgb(255, 255, 255); text-decoration-thickness: initial; text-decoration-style: initial; text-decoration-color: initial; float: none; display: inline !important;&quot;&gt;&lt;font style=&quot;font-size: 9px;&quot;&gt;Provide bottom tab navigate screen&lt;/font&gt;&lt;/span&gt;" style="text;whiteSpace=wrap;html=1;" parent="1" vertex="1">
          <mxGeometry x="170.5" y="630" width="152.5" height="30" as="geometry" />
        </mxCell>
        <mxCell id="WZFWUnbdg4_tSGTDkGMQ-88" value="" style="shape=curlyBracket;whiteSpace=wrap;html=1;rounded=1;flipH=1;labelPosition=right;verticalLabelPosition=middle;align=left;verticalAlign=middle;" parent="1" vertex="1">
          <mxGeometry x="324" y="610" width="20" height="50" as="geometry" />
        </mxCell>
        <mxCell id="WZFWUnbdg4_tSGTDkGMQ-89" value="" style="shape=partialRectangle;whiteSpace=wrap;html=1;left=0;right=0;fillColor=none;" parent="1" vertex="1">
          <mxGeometry x="520" y="617.5" width="120" height="35" as="geometry" />
        </mxCell>
        <mxCell id="WZFWUnbdg4_tSGTDkGMQ-90" value="&lt;div style=&quot;color: rgb(248, 248, 242); background-color: rgb(40, 42, 54); font-family: &amp;quot;Fira Code Retina&amp;quot;, &amp;quot;Courier New&amp;quot;, monospace, Consolas, &amp;quot;Courier New&amp;quot;, monospace; line-height: 16px;&quot;&gt;Bottom Tab -&amp;gt; Screen&lt;/div&gt;" style="text;html=1;strokeColor=none;fillColor=none;align=center;verticalAlign=middle;whiteSpace=wrap;rounded=0;" parent="1" vertex="1">
          <mxGeometry x="350" y="617.5" width="150" height="30" as="geometry" />
        </mxCell>
        <mxCell id="WZFWUnbdg4_tSGTDkGMQ-91" value="" style="shape=curlyBracket;whiteSpace=wrap;html=1;rounded=1;labelPosition=left;verticalLabelPosition=middle;align=right;verticalAlign=middle;size=0.5;" parent="1" vertex="1">
          <mxGeometry x="500" y="617.5" width="20" height="35" as="geometry" />
        </mxCell>
        <mxCell id="WZFWUnbdg4_tSGTDkGMQ-92" value="Bottom Tab - Screen component" style="text;html=1;strokeColor=none;fillColor=none;align=center;verticalAlign=middle;whiteSpace=wrap;rounded=0;" parent="1" vertex="1">
          <mxGeometry x="510" y="620" width="120" height="30" as="geometry" />
        </mxCell>
        <mxCell id="WZFWUnbdg4_tSGTDkGMQ-94" value="" style="rhombus;whiteSpace=wrap;html=1;" parent="1" vertex="1">
          <mxGeometry x="277.5" y="430" width="181" height="80" as="geometry" />
        </mxCell>
        <mxCell id="WZFWUnbdg4_tSGTDkGMQ-98" value="&lt;div style=&quot;color: rgb(248, 248, 242); background-color: rgb(40, 42, 54); font-family: &amp;quot;Fira Code Retina&amp;quot;, &amp;quot;Courier New&amp;quot;, monospace, Consolas, &amp;quot;Courier New&amp;quot;, monospace; line-height: 16px;&quot;&gt;Drawer -&amp;gt; Screen&lt;/div&gt;" style="text;html=1;strokeColor=none;fillColor=none;align=center;verticalAlign=middle;whiteSpace=wrap;rounded=0;" parent="1" vertex="1">
          <mxGeometry x="293" y="455" width="144.5" height="30" as="geometry" />
        </mxCell>
        <mxCell id="WZFWUnbdg4_tSGTDkGMQ-99" value="Single Screen" style="rounded=1;whiteSpace=wrap;html=1;" parent="1" vertex="1">
          <mxGeometry x="137.5" y="532.5" width="102.5" height="30" as="geometry" />
        </mxCell>
        <mxCell id="WZFWUnbdg4_tSGTDkGMQ-100" value="" style="endArrow=classic;html=1;rounded=0;exitX=0;exitY=0.5;exitDx=0;exitDy=0;entryX=1;entryY=0.5;entryDx=0;entryDy=0;" parent="1" source="WZFWUnbdg4_tSGTDkGMQ-79" target="WZFWUnbdg4_tSGTDkGMQ-99" edge="1">
          <mxGeometry width="50" height="50" relative="1" as="geometry">
            <mxPoint x="307.5" y="520" as="sourcePoint" />
            <mxPoint x="357.5" y="470" as="targetPoint" />
          </mxGeometry>
        </mxCell>
        <mxCell id="WZFWUnbdg4_tSGTDkGMQ-101" value="Top Tab Navigator" style="rounded=1;whiteSpace=wrap;html=1;" parent="1" vertex="1">
          <mxGeometry x="527.5" y="532.5" width="102.5" height="30" as="geometry" />
        </mxCell>
        <mxCell id="WZFWUnbdg4_tSGTDkGMQ-102" value="" style="endArrow=classic;html=1;rounded=0;" parent="1" edge="1">
          <mxGeometry width="50" height="50" relative="1" as="geometry">
            <mxPoint x="433" y="547.24" as="sourcePoint" />
            <mxPoint x="518" y="547.24" as="targetPoint" />
          </mxGeometry>
        </mxCell>
        <mxCell id="WZFWUnbdg4_tSGTDkGMQ-103" value="" style="endArrow=none;dashed=1;html=1;rounded=0;" parent="1" edge="1">
          <mxGeometry width="50" height="50" relative="1" as="geometry">
            <mxPoint x="397.5" y="740" as="sourcePoint" />
            <mxPoint x="797.5" y="740" as="targetPoint" />
          </mxGeometry>
        </mxCell>
        <mxCell id="WZFWUnbdg4_tSGTDkGMQ-104" value="Top Tab Navigator" style="rounded=1;whiteSpace=wrap;html=1;" parent="1" vertex="1">
          <mxGeometry x="397.5" y="750" width="102.5" height="30" as="geometry" />
        </mxCell>
        <mxCell id="WZFWUnbdg4_tSGTDkGMQ-105" value="&lt;span style=&quot;color: rgb(0, 0, 0); font-family: Helvetica; font-size: 11px; font-style: normal; font-variant-ligatures: normal; font-variant-caps: normal; font-weight: 400; letter-spacing: normal; orphans: 2; text-align: center; text-indent: 0px; text-transform: none; widows: 2; word-spacing: 0px; -webkit-text-stroke-width: 0px; background-color: rgb(255, 255, 255); text-decoration-thickness: initial; text-decoration-style: initial; text-decoration-color: initial; float: none; display: inline !important;&quot;&gt;TopTab defined by createMaterialTopTabNavigator&lt;/span&gt;" style="text;whiteSpace=wrap;html=1;" parent="1" vertex="1">
          <mxGeometry x="557.5" y="750" width="260" height="30" as="geometry" />
        </mxCell>
        <mxCell id="WZFWUnbdg4_tSGTDkGMQ-108" value="&lt;div style=&quot;color: rgb(248, 248, 242); background-color: rgb(40, 42, 54); font-family: &amp;quot;Fira Code Retina&amp;quot;, &amp;quot;Courier New&amp;quot;, monospace, Consolas, &amp;quot;Courier New&amp;quot;, monospace; line-height: 16px;&quot;&gt;TopTab -&amp;gt; Navigator&lt;/div&gt;" style="text;html=1;strokeColor=none;fillColor=none;align=center;verticalAlign=middle;whiteSpace=wrap;rounded=0;" parent="1" vertex="1">
          <mxGeometry x="414.88" y="800" width="177.5" height="30" as="geometry" />
        </mxCell>
        <mxCell id="l3EFAe5m562RGDAlPu4d-1" value="&lt;span style=&quot;color: rgb(0, 0, 0); font-family: Helvetica; font-style: normal; font-variant-ligatures: normal; font-variant-caps: normal; font-weight: 400; letter-spacing: normal; orphans: 2; text-align: center; text-indent: 0px; text-transform: none; widows: 2; word-spacing: 0px; -webkit-text-stroke-width: 0px; background-color: rgb(255, 255, 255); text-decoration-thickness: initial; text-decoration-style: initial; text-decoration-color: initial; float: none; display: inline !important;&quot;&gt;&lt;font style=&quot;font-size: 9px;&quot;&gt;Provide Toptab navigate screen&lt;/font&gt;&lt;/span&gt;" style="text;whiteSpace=wrap;html=1;" vertex="1" parent="1">
          <mxGeometry x="442.88" y="821" width="142.5" height="30" as="geometry" />
        </mxCell>
        <mxCell id="l3EFAe5m562RGDAlPu4d-5" value="" style="shape=curlyBracket;whiteSpace=wrap;html=1;rounded=1;flipH=1;labelPosition=right;verticalLabelPosition=middle;align=left;verticalAlign=middle;" vertex="1" parent="1">
          <mxGeometry x="577.38" y="800" width="20" height="50" as="geometry" />
        </mxCell>
        <mxCell id="l3EFAe5m562RGDAlPu4d-6" value="" style="endArrow=classic;html=1;rounded=0;exitX=1;exitY=0.5;exitDx=0;exitDy=0;entryX=0;entryY=0.5;entryDx=0;entryDy=0;" edge="1" parent="1" source="WZFWUnbdg4_tSGTDkGMQ-104" target="WZFWUnbdg4_tSGTDkGMQ-105">
          <mxGeometry width="50" height="50" relative="1" as="geometry">
            <mxPoint x="537.5" y="780" as="sourcePoint" />
            <mxPoint x="547.5" y="765" as="targetPoint" />
          </mxGeometry>
        </mxCell>
        <mxCell id="l3EFAe5m562RGDAlPu4d-8" value="" style="shape=curlyBracket;whiteSpace=wrap;html=1;rounded=1;labelPosition=left;verticalLabelPosition=middle;align=right;verticalAlign=middle;" vertex="1" parent="1">
          <mxGeometry x="671.13" y="800" width="20" height="50" as="geometry" />
        </mxCell>
        <mxCell id="l3EFAe5m562RGDAlPu4d-9" value="TopTab - Screen&lt;br&gt;Component" style="text;html=1;strokeColor=none;fillColor=none;align=center;verticalAlign=middle;whiteSpace=wrap;rounded=0;" vertex="1" parent="1">
          <mxGeometry x="680.13" y="810" width="100" height="30" as="geometry" />
        </mxCell>
        <mxCell id="l3EFAe5m562RGDAlPu4d-12" value="" style="endArrow=classic;html=1;rounded=0;exitX=0.1;exitY=0.5;exitDx=0;exitDy=0;exitPerimeter=0;" edge="1" parent="1" source="l3EFAe5m562RGDAlPu4d-5">
          <mxGeometry width="50" height="50" relative="1" as="geometry">
            <mxPoint x="598.63" y="830" as="sourcePoint" />
            <mxPoint x="668.63" y="825" as="targetPoint" />
          </mxGeometry>
        </mxCell>
        <mxCell id="l3EFAe5m562RGDAlPu4d-14" value="" style="edgeStyle=segmentEdgeStyle;endArrow=classic;html=1;curved=0;rounded=0;endSize=8;startSize=8;" edge="1" parent="1">
          <mxGeometry width="50" height="50" relative="1" as="geometry">
            <mxPoint x="630.13" y="550" as="sourcePoint" />
            <mxPoint x="687.5" y="730" as="targetPoint" />
          </mxGeometry>
        </mxCell>
        <mxCell id="l3EFAe5m562RGDAlPu4d-16" value="&lt;div style=&quot;color: rgb(248, 248, 242); background-color: rgb(40, 42, 54); font-family: &amp;quot;Fira Code Retina&amp;quot;, &amp;quot;Courier New&amp;quot;, monospace, Consolas, &amp;quot;Courier New&amp;quot;, monospace; font-weight: 450; font-size: 12px; line-height: 16px;&quot;&gt;&lt;div&gt;&lt;span style=&quot;color: #8be9fe;&quot;&gt;&lt;br&gt;&lt;/span&gt;&lt;/div&gt;&lt;div&gt;&lt;span style=&quot;color: #8be9fe;&quot;&gt;&quot;&lt;/span&gt;&lt;span style=&quot;color: #8be9fd;&quot;&gt;dependencies&lt;/span&gt;&lt;span style=&quot;color: #8be9fe;&quot;&gt;&quot;&lt;/span&gt;&lt;span style=&quot;color: #ff79c6;&quot;&gt;:&lt;/span&gt;&lt;span style=&quot;color: #f8f8f2;&quot;&gt; {&lt;/span&gt;&lt;/div&gt;&lt;div&gt;&lt;span style=&quot;color: #f8f8f2;&quot;&gt;&amp;nbsp; &amp;nbsp; &lt;/span&gt;&lt;span style=&quot;color: #8be9fe;&quot;&gt;&quot;&lt;/span&gt;&lt;span style=&quot;color: #8be9fd;&quot;&gt;@react-navigation/bottom-tabs&lt;/span&gt;&lt;span style=&quot;color: #8be9fe;&quot;&gt;&quot;&lt;/span&gt;&lt;span style=&quot;color: #ff79c6;&quot;&gt;:&lt;/span&gt;&lt;span style=&quot;color: #f8f8f2;&quot;&gt; &lt;/span&gt;&lt;span style=&quot;color: #e9f284;&quot;&gt;&quot;&lt;/span&gt;&lt;span style=&quot;color: #f1fa8c;&quot;&gt;^6.5.7&lt;/span&gt;&lt;span style=&quot;color: #e9f284;&quot;&gt;&quot;&lt;/span&gt;&lt;span style=&quot;color: #f8f8f2;&quot;&gt;,&lt;/span&gt;&lt;/div&gt;&lt;div&gt;&lt;span style=&quot;color: #f8f8f2;&quot;&gt;&amp;nbsp; &amp;nbsp; &lt;/span&gt;&lt;span style=&quot;color: #8be9fe;&quot;&gt;&quot;&lt;/span&gt;&lt;span style=&quot;color: #8be9fd;&quot;&gt;@react-navigation/drawer&lt;/span&gt;&lt;span style=&quot;color: #8be9fe;&quot;&gt;&quot;&lt;/span&gt;&lt;span style=&quot;color: #ff79c6;&quot;&gt;:&lt;/span&gt;&lt;span style=&quot;color: #f8f8f2;&quot;&gt; &lt;/span&gt;&lt;span style=&quot;color: #e9f284;&quot;&gt;&quot;&lt;/span&gt;&lt;span style=&quot;color: #f1fa8c;&quot;&gt;^6.6.2&lt;/span&gt;&lt;span style=&quot;color: #e9f284;&quot;&gt;&quot;&lt;/span&gt;&lt;span style=&quot;color: #f8f8f2;&quot;&gt;,&lt;/span&gt;&lt;/div&gt;&lt;div&gt;&lt;span style=&quot;color: #f8f8f2;&quot;&gt;&amp;nbsp; &amp;nbsp; &lt;/span&gt;&lt;span style=&quot;color: #8be9fe;&quot;&gt;&quot;&lt;/span&gt;&lt;span style=&quot;color: #8be9fd;&quot;&gt;@react-navigation/material-top-tabs&lt;/span&gt;&lt;span style=&quot;color: #8be9fe;&quot;&gt;&quot;&lt;/span&gt;&lt;span style=&quot;color: #ff79c6;&quot;&gt;:&lt;/span&gt;&lt;span style=&quot;color: #f8f8f2;&quot;&gt; &lt;/span&gt;&lt;span style=&quot;color: #e9f284;&quot;&gt;&quot;&lt;/span&gt;&lt;span style=&quot;color: #f1fa8c;&quot;&gt;^6.6.2&lt;/span&gt;&lt;span style=&quot;color: #e9f284;&quot;&gt;&quot;&lt;/span&gt;&lt;span style=&quot;color: #f8f8f2;&quot;&gt;,&lt;/span&gt;&lt;/div&gt;&lt;div&gt;&lt;span style=&quot;color: #f8f8f2;&quot;&gt;&amp;nbsp; &amp;nbsp; &lt;/span&gt;&lt;span style=&quot;color: #8be9fe;&quot;&gt;&quot;&lt;/span&gt;&lt;span style=&quot;color: #8be9fd;&quot;&gt;@react-navigation/native&lt;/span&gt;&lt;span style=&quot;color: #8be9fe;&quot;&gt;&quot;&lt;/span&gt;&lt;span style=&quot;color: #ff79c6;&quot;&gt;:&lt;/span&gt;&lt;span style=&quot;color: #f8f8f2;&quot;&gt; &lt;/span&gt;&lt;span style=&quot;color: #e9f284;&quot;&gt;&quot;&lt;/span&gt;&lt;span style=&quot;color: #f1fa8c;&quot;&gt;^6.1.6&lt;/span&gt;&lt;span style=&quot;color: #e9f284;&quot;&gt;&quot;&lt;/span&gt;&lt;span style=&quot;color: #f8f8f2;&quot;&gt;,&lt;/span&gt;&lt;/div&gt;&lt;div&gt;&lt;span style=&quot;color: #f8f8f2;&quot;&gt;&amp;nbsp; &amp;nbsp; &lt;/span&gt;&lt;span style=&quot;color: #8be9fe;&quot;&gt;&quot;&lt;/span&gt;&lt;span style=&quot;color: #8be9fd;&quot;&gt;@react-navigation/native-stack&lt;/span&gt;&lt;span style=&quot;color: #8be9fe;&quot;&gt;&quot;&lt;/span&gt;&lt;span style=&quot;color: #ff79c6;&quot;&gt;:&lt;/span&gt;&lt;span style=&quot;color: #f8f8f2;&quot;&gt; &lt;/span&gt;&lt;span style=&quot;color: #e9f284;&quot;&gt;&quot;&lt;/span&gt;&lt;span style=&quot;color: #f1fa8c;&quot;&gt;^6.9.12&lt;/span&gt;&lt;span style=&quot;color: #e9f284;&quot;&gt;&quot;&lt;/span&gt;&lt;span style=&quot;color: #f8f8f2;&quot;&gt;,&lt;/span&gt;&lt;/div&gt;&lt;div&gt;&lt;span style=&quot;color: #f8f8f2;&quot;&gt;&amp;nbsp; &amp;nbsp; &lt;/span&gt;&lt;span style=&quot;color: #8be9fe;&quot;&gt;&quot;&lt;/span&gt;&lt;span style=&quot;color: #8be9fd;&quot;&gt;@react-navigation/stack&lt;/span&gt;&lt;span style=&quot;color: #8be9fe;&quot;&gt;&quot;&lt;/span&gt;&lt;span style=&quot;color: #ff79c6;&quot;&gt;:&lt;/span&gt;&lt;span style=&quot;color: #f8f8f2;&quot;&gt; &lt;/span&gt;&lt;span style=&quot;color: #e9f284;&quot;&gt;&quot;&lt;/span&gt;&lt;span style=&quot;color: #f1fa8c;&quot;&gt;^6.3.16&lt;/span&gt;&lt;span style=&quot;color: #e9f284;&quot;&gt;&quot;&lt;/span&gt;&lt;span style=&quot;color: #f8f8f2;&quot;&gt;,&lt;/span&gt;&lt;/div&gt;&lt;div&gt;&lt;span style=&quot;color: #f8f8f2;&quot;&gt;&amp;nbsp; },&lt;/span&gt;&lt;/div&gt;&lt;div&gt;&lt;span style=&quot;color: #f8f8f2;&quot;&gt;&lt;br&gt;&lt;/span&gt;&lt;/div&gt;&lt;/div&gt;" style="text;whiteSpace=wrap;html=1;" vertex="1" parent="1">
          <mxGeometry x="214.5" y="920" width="392.5" height="178" as="geometry" />
        </mxCell>
        <mxCell id="l3EFAe5m562RGDAlPu4d-22" value="Drawer navigation app" style="ellipse;shape=doubleEllipse;whiteSpace=wrap;html=1;sketch=1;hachureGap=4;jiggle=2;curveFitting=1;fontFamily=Architects Daughter;fontSource=https%3A%2F%2Ffonts.googleapis.com%2Fcss%3Ffamily%3DArchitects%2BDaughter;fontSize=20;" vertex="1" parent="1">
          <mxGeometry x="376.13" y="30" width="422.5" height="60" as="geometry" />
        </mxCell>
      </root>
    </mxGraphModel>
  </diagram>
</mxfile>
